<?xml version="1.0" encoding="UTF-8" standalone="no"?><!DOCTYPE svg PUBLIC "-//W3C//DTD SVG 1.1//EN" "http://www.w3.org/Graphics/SVG/1.1/DTD/svg11.dtd"><!-- Generated by graphviz version 2.40.1 (20161225.0304)
 --><!-- Title: %0 Pages: 1 --><svg xmlns="http://www.w3.org/2000/svg" xmlns:xlink="http://www.w3.org/1999/xlink" width="1184pt" height="476pt" viewBox="0.00 0.00 1184.48 476.00">
<g id="graph0" class="graph" transform="scale(1 1) rotate(0) translate(4 472)">
<title>%0</title>
<polygon fill="#ffffff" stroke="transparent" points="-4,4 -4,-472 1180.4778,-472 1180.4778,4 -4,4"/>
<!-- [root] azurerm_firewall.default (expand) -->
<g id="node1" class="node">
<title>[root] azurerm_firewall.default (expand)</title>
<polygon fill="none" stroke="#000000" points="888.5003,-324 733.9891,-324 733.9891,-288 888.5003,-288 888.5003,-324"/>
<text text-anchor="middle" x="811.2447" y="-301.8" font-family="Times,serif" font-size="14.00" fill="#000000">azurerm_firewall.default</text>
</g>
<!-- [root] azurerm_firewall_policy.default (expand) -->
<g id="node2" class="node">
<title>[root] azurerm_firewall_policy.default (expand)</title>
<polygon fill="none" stroke="#000000" points="689.496,-252 492.9933,-252 492.9933,-216 689.496,-216 689.496,-252"/>
<text text-anchor="middle" x="591.2447" y="-229.8" font-family="Times,serif" font-size="14.00" fill="#000000">azurerm_firewall_policy.default</text>
</g>
<!-- [root] azurerm_firewall.default (expand)&#45;&gt;[root] azurerm_firewall_policy.default (expand) -->
<g id="edge1" class="edge">
<title>[root] azurerm_firewall.default (expand)-&gt;[root] azurerm_firewall_policy.default (expand)</title>
<path fill="none" stroke="#000000" d="M756.0134,-287.9243C725.6766,-277.9959 687.8781,-265.6255 656.1392,-255.2382"/>
<polygon fill="#000000" stroke="#000000" points="657.0914,-251.8672 646.4987,-252.0831 654.914,-258.52 657.0914,-251.8672"/>
</g>
<!-- [root] azurerm_public_ip.default (expand) -->
<g id="node4" class="node">
<title>[root] azurerm_public_ip.default (expand)</title>
<polygon fill="none" stroke="#000000" points="1067.3577,-252 903.1316,-252 903.1316,-216 1067.3577,-216 1067.3577,-252"/>
<text text-anchor="middle" x="985.2447" y="-229.8" font-family="Times,serif" font-size="14.00" fill="#000000">azurerm_public_ip.default</text>
</g>
<!-- [root] azurerm_firewall.default (expand)&#45;&gt;[root] azurerm_public_ip.default (expand) -->
<g id="edge2" class="edge">
<title>[root] azurerm_firewall.default (expand)-&gt;[root] azurerm_public_ip.default (expand)</title>
<path fill="none" stroke="#000000" d="M855.1522,-287.8314C878.5271,-278.159 907.4544,-266.1891 932.0915,-255.9944"/>
<polygon fill="#000000" stroke="#000000" points="933.751,-259.0956 941.6529,-252.038 931.0744,-252.6275 933.751,-259.0956"/>
</g>
<!-- [root] azurerm_subnet.default (expand) -->
<g id="node6" class="node">
<title>[root] azurerm_subnet.default (expand)</title>
<polygon fill="none" stroke="#000000" points="885.0213,-252 737.4681,-252 737.4681,-216 885.0213,-216 885.0213,-252"/>
<text text-anchor="middle" x="811.2447" y="-229.8" font-family="Times,serif" font-size="14.00" fill="#000000">azurerm_subnet.default</text>
</g>
<!-- [root] azurerm_firewall.default (expand)&#45;&gt;[root] azurerm_subnet.default (expand) -->
<g id="edge3" class="edge">
<title>[root] azurerm_firewall.default (expand)-&gt;[root] azurerm_subnet.default (expand)</title>
<path fill="none" stroke="#000000" d="M811.2447,-287.8314C811.2447,-280.131 811.2447,-270.9743 811.2447,-262.4166"/>
<polygon fill="#000000" stroke="#000000" points="814.7448,-262.4132 811.2447,-252.4133 807.7448,-262.4133 814.7448,-262.4132"/>
</g>
<!-- [root] azurerm_resource_group.default (expand) -->
<g id="node5" class="node">
<title>[root] azurerm_resource_group.default (expand)</title>
<polygon fill="none" stroke="#000000" points="754.5417,-108 555.9477,-108 555.9477,-72 754.5417,-72 754.5417,-108"/>
<text text-anchor="middle" x="655.2447" y="-85.8" font-family="Times,serif" font-size="14.00" fill="#000000">azurerm_resource_group.default</text>
</g>
<!-- [root] azurerm_firewall_policy.default (expand)&#45;&gt;[root] azurerm_resource_group.default (expand) -->
<g id="edge4" class="edge">
<title>[root] azurerm_firewall_policy.default (expand)-&gt;[root] azurerm_resource_group.default (expand)</title>
<path fill="none" stroke="#000000" d="M592.4839,-215.924C594.3485,-197.1363 598.9594,-167.2792 610.2447,-144 615.0857,-134.014 622.1657,-124.3086 629.2832,-115.9445"/>
<polygon fill="#000000" stroke="#000000" points="631.9963,-118.1609 636.0468,-108.3709 626.7752,-113.4982 631.9963,-118.1609"/>
</g>
<!-- [root] azurerm_firewall_policy_rule_collection_group.default (expand) -->
<g id="node3" class="node">
<title>[root] azurerm_firewall_policy_rule_collection_group.default (expand)</title>
<polygon fill="none" stroke="#000000" points="716.1287,-324 388.3607,-324 388.3607,-288 716.1287,-288 716.1287,-324"/>
<text text-anchor="middle" x="552.2447" y="-301.8" font-family="Times,serif" font-size="14.00" fill="#000000">azurerm_firewall_policy_rule_collection_group.default</text>
</g>
<!-- [root] azurerm_firewall_policy_rule_collection_group.default (expand)&#45;&gt;[root] azurerm_firewall_policy.default (expand) -->
<g id="edge5" class="edge">
<title>[root] azurerm_firewall_policy_rule_collection_group.default (expand)-&gt;[root] azurerm_firewall_policy.default (expand)</title>
<path fill="none" stroke="#000000" d="M562.086,-287.8314C566.4404,-279.7925 571.6545,-270.1666 576.4616,-261.2918"/>
<polygon fill="#000000" stroke="#000000" points="579.5855,-262.8732 581.2708,-252.4133 573.4304,-259.5392 579.5855,-262.8732"/>
</g>
<!-- [root] azurerm_public_ip.default (expand)&#45;&gt;[root] azurerm_resource_group.default (expand) -->
<g id="edge6" class="edge">
<title>[root] azurerm_public_ip.default (expand)-&gt;[root] azurerm_resource_group.default (expand)</title>
<path fill="none" stroke="#000000" d="M986.9123,-215.643C987.677,-195.1727 985.4401,-162.514 966.2447,-144 964.3556,-142.178 853.2709,-123.1848 764.4079,-108.2324"/>
<polygon fill="#000000" stroke="#000000" points="764.9567,-104.7757 754.5148,-106.569 763.796,-111.6788 764.9567,-104.7757"/>
</g>
<!-- [root] provider[&quot;registry.terraform.io/hashicorp/azurerm&quot;] -->
<g id="node9" class="node">
<title>[root] provider["registry.terraform.io/hashicorp/azurerm"]</title>
<polygon fill="none" stroke="#000000" points="298.2447,-36 -.2449,-18 298.2447,0 596.7343,-18 298.2447,-36"/>
<text text-anchor="middle" x="298.2447" y="-13.8" font-family="Times,serif" font-size="14.00" fill="#000000">provider["registry.terraform.io/hashicorp/azurerm"]</text>
</g>
<!-- [root] azurerm_resource_group.default (expand)&#45;&gt;[root] provider[&quot;registry.terraform.io/hashicorp/azurerm&quot;] -->
<g id="edge7" class="edge">
<title>[root] azurerm_resource_group.default (expand)-&gt;[root] provider["registry.terraform.io/hashicorp/azurerm"]</title>
<path fill="none" stroke="#000000" d="M565.6193,-71.9243C507.5556,-60.214 432.6474,-45.1064 376.8967,-33.8626"/>
<polygon fill="#000000" stroke="#000000" points="377.5642,-30.4268 367.0696,-31.8807 376.1803,-37.2887 377.5642,-30.4268"/>
</g>
<!-- [root] var.location -->
<g id="node12" class="node">
<title>[root] var.location</title>
<polygon fill="none" stroke="#000000" points="690.7223,-36 613.7671,-36 613.7671,0 696.7223,0 696.7223,-30 690.7223,-36"/>
<polyline fill="none" stroke="#000000" points="690.7223,-36 690.7223,-30 "/>
<polyline fill="none" stroke="#000000" points="696.7223,-30 690.7223,-30 "/>
<text text-anchor="middle" x="655.2447" y="-13.8" font-family="Times,serif" font-size="14.00" fill="#000000">var.location</text>
</g>
<!-- [root] azurerm_resource_group.default (expand)&#45;&gt;[root] var.location -->
<g id="edge8" class="edge">
<title>[root] azurerm_resource_group.default (expand)-&gt;[root] var.location</title>
<path fill="none" stroke="#000000" d="M655.2447,-71.8314C655.2447,-64.131 655.2447,-54.9743 655.2447,-46.4166"/>
<polygon fill="#000000" stroke="#000000" points="658.7448,-46.4132 655.2447,-36.4133 651.7448,-46.4133 658.7448,-46.4132"/>
</g>
<!-- [root] var.name -->
<g id="node13" class="node">
<title>[root] var.name</title>
<polygon fill="none" stroke="#000000" points="775.9404,-36 714.549,-36 714.549,0 781.9404,0 781.9404,-30 775.9404,-36"/>
<polyline fill="none" stroke="#000000" points="775.9404,-36 775.9404,-30 "/>
<polyline fill="none" stroke="#000000" points="781.9404,-30 775.9404,-30 "/>
<text text-anchor="middle" x="748.2447" y="-13.8" font-family="Times,serif" font-size="14.00" fill="#000000">var.name</text>
</g>
<!-- [root] azurerm_resource_group.default (expand)&#45;&gt;[root] var.name -->
<g id="edge9" class="edge">
<title>[root] azurerm_resource_group.default (expand)-&gt;[root] var.name</title>
<path fill="none" stroke="#000000" d="M678.7125,-71.8314C690.2774,-62.8779 704.3851,-51.9558 716.863,-42.2955"/>
<polygon fill="#000000" stroke="#000000" points="719.0197,-45.0521 724.7844,-36.1628 714.7345,-39.5171 719.0197,-45.0521"/>
</g>
<!-- [root] azurerm_virtual_network.default (expand) -->
<g id="node7" class="node">
<title>[root] azurerm_virtual_network.default (expand)</title>
<polygon fill="none" stroke="#000000" points="819.391,-180 619.0984,-180 619.0984,-144 819.391,-144 819.391,-180"/>
<text text-anchor="middle" x="719.2447" y="-157.8" font-family="Times,serif" font-size="14.00" fill="#000000">azurerm_virtual_network.default</text>
</g>
<!-- [root] azurerm_subnet.default (expand)&#45;&gt;[root] azurerm_virtual_network.default (expand) -->
<g id="edge10" class="edge">
<title>[root] azurerm_subnet.default (expand)-&gt;[root] azurerm_virtual_network.default (expand)</title>
<path fill="none" stroke="#000000" d="M788.0292,-215.8314C776.6977,-206.9632 762.8983,-196.1637 750.642,-186.5718"/>
<polygon fill="#000000" stroke="#000000" points="752.4849,-183.5697 742.4527,-180.1628 748.1707,-189.0822 752.4849,-183.5697"/>
</g>
<!-- [root] var.address_prefix -->
<g id="node10" class="node">
<title>[root] var.address_prefix</title>
<polygon fill="none" stroke="#000000" points="951.0255,-180 837.4639,-180 837.4639,-144 957.0255,-144 957.0255,-174 951.0255,-180"/>
<polyline fill="none" stroke="#000000" points="951.0255,-180 951.0255,-174 "/>
<polyline fill="none" stroke="#000000" points="957.0255,-174 951.0255,-174 "/>
<text text-anchor="middle" x="897.2447" y="-157.8" font-family="Times,serif" font-size="14.00" fill="#000000">var.address_prefix</text>
</g>
<!-- [root] azurerm_subnet.default (expand)&#45;&gt;[root] var.address_prefix -->
<g id="edge11" class="edge">
<title>[root] azurerm_subnet.default (expand)-&gt;[root] var.address_prefix</title>
<path fill="none" stroke="#000000" d="M832.9461,-215.8314C843.4368,-207.0485 856.1902,-196.3712 867.5641,-186.8489"/>
<polygon fill="#000000" stroke="#000000" points="870.1294,-189.2659 875.5502,-180.1628 865.6358,-183.8986 870.1294,-189.2659"/>
</g>
<!-- [root] azurerm_virtual_network.default (expand)&#45;&gt;[root] azurerm_resource_group.default (expand) -->
<g id="edge12" class="edge">
<title>[root] azurerm_virtual_network.default (expand)-&gt;[root] azurerm_resource_group.default (expand)</title>
<path fill="none" stroke="#000000" d="M703.0948,-143.8314C695.573,-135.3694 686.4882,-125.1489 678.2643,-115.8971"/>
<polygon fill="#000000" stroke="#000000" points="680.8716,-113.5621 671.612,-108.4133 675.6398,-118.2127 680.8716,-113.5621"/>
</g>
<!-- [root] var.address_space -->
<g id="node11" class="node">
<title>[root] var.address_space</title>
<polygon fill="none" stroke="#000000" points="884.1881,-108 772.3012,-108 772.3012,-72 890.1881,-72 890.1881,-102 884.1881,-108"/>
<polyline fill="none" stroke="#000000" points="884.1881,-108 884.1881,-102 "/>
<polyline fill="none" stroke="#000000" points="890.1881,-102 884.1881,-102 "/>
<text text-anchor="middle" x="831.2447" y="-85.8" font-family="Times,serif" font-size="14.00" fill="#000000">var.address_space</text>
</g>
<!-- [root] azurerm_virtual_network.default (expand)&#45;&gt;[root] var.address_space -->
<g id="edge13" class="edge">
<title>[root] azurerm_virtual_network.default (expand)-&gt;[root] var.address_space</title>
<path fill="none" stroke="#000000" d="M747.507,-143.8314C761.6999,-134.7074 779.0729,-123.539 794.3082,-113.7449"/>
<polygon fill="#000000" stroke="#000000" points="796.4723,-116.5146 802.9914,-108.1628 792.6869,-110.6263 796.4723,-116.5146"/>
</g>
<!-- [root] output.public_ip_address -->
<g id="node8" class="node">
<title>[root] output.public_ip_address</title>
<polygon fill="none" stroke="#000000" points="1057.8914,-324 906.598,-324 906.598,-288 1063.8914,-288 1063.8914,-318 1057.8914,-324"/>
<polyline fill="none" stroke="#000000" points="1057.8914,-324 1057.8914,-318 "/>
<polyline fill="none" stroke="#000000" points="1063.8914,-318 1057.8914,-318 "/>
<text text-anchor="middle" x="985.2447" y="-301.8" font-family="Times,serif" font-size="14.00" fill="#000000">output.public_ip_address</text>
</g>
<!-- [root] output.public_ip_address&#45;&gt;[root] azurerm_public_ip.default (expand) -->
<g id="edge17" class="edge">
<title>[root] output.public_ip_address-&gt;[root] azurerm_public_ip.default (expand)</title>
<path fill="none" stroke="#000000" d="M985.2447,-287.8314C985.2447,-280.131 985.2447,-270.9743 985.2447,-262.4166"/>
<polygon fill="#000000" stroke="#000000" points="988.7448,-262.4132 985.2447,-252.4133 981.7448,-262.4133 988.7448,-262.4132"/>
</g>
<!-- [root] meta.count&#45;boundary (EachMode fixup) -->
<g id="node14" class="node">
<title>[root] meta.count-boundary (EachMode fixup)</title>
<ellipse fill="none" stroke="#000000" cx="985.2447" cy="-378" rx="191.4666" ry="18"/>
<text text-anchor="middle" x="985.2447" y="-373.8" font-family="Times,serif" font-size="14.00" fill="#000000">[root] meta.count-boundary (EachMode fixup)</text>
</g>
<!-- [root] meta.count&#45;boundary (EachMode fixup)&#45;&gt;[root] azurerm_firewall.default (expand) -->
<g id="edge14" class="edge">
<title>[root] meta.count-boundary (EachMode fixup)-&gt;[root] azurerm_firewall.default (expand)</title>
<path fill="none" stroke="#000000" d="M942.6795,-360.3868C919.038,-350.6042 889.4126,-338.3453 864.2754,-327.9437"/>
<polygon fill="#000000" stroke="#000000" points="865.4614,-324.6467 854.8829,-324.0572 862.7849,-331.1148 865.4614,-324.6467"/>
</g>
<!-- [root] meta.count&#45;boundary (EachMode fixup)&#45;&gt;[root] azurerm_firewall_policy_rule_collection_group.default (expand) -->
<g id="edge15" class="edge">
<title>[root] meta.count-boundary (EachMode fixup)-&gt;[root] azurerm_firewall_policy_rule_collection_group.default (expand)</title>
<path fill="none" stroke="#000000" d="M891.0232,-362.3327C826.4074,-351.5883 740.1696,-337.2485 670.8743,-325.7259"/>
<polygon fill="#000000" stroke="#000000" points="671.2166,-322.2349 660.7779,-324.0471 670.0684,-329.1401 671.2166,-322.2349"/>
</g>
<!-- [root] meta.count&#45;boundary (EachMode fixup)&#45;&gt;[root] output.public_ip_address -->
<g id="edge16" class="edge">
<title>[root] meta.count-boundary (EachMode fixup)-&gt;[root] output.public_ip_address</title>
<path fill="none" stroke="#000000" d="M985.2447,-359.8314C985.2447,-352.131 985.2447,-342.9743 985.2447,-334.4166"/>
<polygon fill="#000000" stroke="#000000" points="988.7448,-334.4132 985.2447,-324.4133 981.7448,-334.4133 988.7448,-334.4132"/>
</g>
<!-- [root] provider[&quot;registry.terraform.io/hashicorp/azurerm&quot;] (close) -->
<g id="node15" class="node">
<title>[root] provider["registry.terraform.io/hashicorp/azurerm"] (close)</title>
<ellipse fill="none" stroke="#000000" cx="512.2447" cy="-378" rx="263.9501" ry="18"/>
<text text-anchor="middle" x="512.2447" y="-373.8" font-family="Times,serif" font-size="14.00" fill="#000000">[root] provider["registry.terraform.io/hashicorp/azurerm"] (close)</text>
</g>
<!-- [root] provider[&quot;registry.terraform.io/hashicorp/azurerm&quot;] (close)&#45;&gt;[root] azurerm_firewall.default (expand) -->
<g id="edge18" class="edge">
<title>[root] provider["registry.terraform.io/hashicorp/azurerm"] (close)-&gt;[root] azurerm_firewall.default (expand)</title>
<path fill="none" stroke="#000000" d="M584.2431,-360.6626C627.1464,-350.3314 681.82,-337.1658 726.7596,-326.3442"/>
<polygon fill="#000000" stroke="#000000" points="727.5836,-329.7459 736.4863,-324.002 725.9448,-322.9405 727.5836,-329.7459"/>
</g>
<!-- [root] provider[&quot;registry.terraform.io/hashicorp/azurerm&quot;] (close)&#45;&gt;[root] azurerm_firewall_policy_rule_collection_group.default (expand) -->
<g id="edge19" class="edge">
<title>[root] provider["registry.terraform.io/hashicorp/azurerm"] (close)-&gt;[root] azurerm_firewall_policy_rule_collection_group.default (expand)</title>
<path fill="none" stroke="#000000" d="M522.3384,-359.8314C526.8044,-351.7925 532.1522,-342.1666 537.0826,-333.2918"/>
<polygon fill="#000000" stroke="#000000" points="540.2182,-334.8546 542.0151,-324.4133 534.0991,-331.4551 540.2182,-334.8546"/>
</g>
<!-- [root] root -->
<g id="node16" class="node">
<title>[root] root</title>
<ellipse fill="none" stroke="#000000" cx="748.2447" cy="-450" rx="50.9823" ry="18"/>
<text text-anchor="middle" x="748.2447" y="-445.8" font-family="Times,serif" font-size="14.00" fill="#000000">[root] root</text>
</g>
<!-- [root] root&#45;&gt;[root] meta.count&#45;boundary (EachMode fixup) -->
<g id="edge20" class="edge">
<title>[root] root-&gt;[root] meta.count-boundary (EachMode fixup)</title>
<path fill="none" stroke="#000000" d="M787.115,-438.1913C822.8115,-427.3468 876.4507,-411.0513 918.919,-398.1496"/>
<polygon fill="#000000" stroke="#000000" points="920.0753,-401.4563 928.6261,-395.2006 918.0405,-394.7586 920.0753,-401.4563"/>
</g>
<!-- [root] root&#45;&gt;[root] provider[&quot;registry.terraform.io/hashicorp/azurerm&quot;] (close) -->
<g id="edge21" class="edge">
<title>[root] root-&gt;[root] provider["registry.terraform.io/hashicorp/azurerm"] (close)</title>
<path fill="none" stroke="#000000" d="M709.5384,-438.1913C674.3565,-427.4578 621.6716,-411.3845 579.5929,-398.5469"/>
<polygon fill="#000000" stroke="#000000" points="580.5523,-395.1804 569.9662,-395.6099 578.5096,-401.8758 580.5523,-395.1804"/>
</g>
</g>
</svg>