<?xml version="1.0" encoding="UTF-8" standalone="no"?><!DOCTYPE svg PUBLIC "-//W3C//DTD SVG 1.1//EN" "http://www.w3.org/Graphics/SVG/1.1/DTD/svg11.dtd"><!-- Generated by graphviz version 2.40.1 (20161225.0304)
 --><!-- Title: %0 Pages: 1 --><svg xmlns="http://www.w3.org/2000/svg" xmlns:xlink="http://www.w3.org/1999/xlink" width="2086pt" height="620pt" viewBox="0.00 0.00 2086.34 620.00">
<g id="graph0" class="graph" transform="scale(1 1) rotate(0) translate(4 616)">
<title>%0</title>
<polygon fill="#ffffff" stroke="transparent" points="-4,4 -4,-616 2082.3351,-616 2082.3351,4 -4,4"/>
<!-- [root] module.azurerm_firewall.azurerm_firewall.default (expand) -->
<g id="node1" class="node">
<title>[root] module.azurerm_firewall.azurerm_firewall.default (expand)</title>
<polygon fill="none" stroke="#000000" points="907.1691,-396 606.8978,-396 606.8978,-360 907.1691,-360 907.1691,-396"/>
<text text-anchor="middle" x="757.0335" y="-373.8" font-family="Times,serif" font-size="14.00" fill="#000000">module.azurerm_firewall.azurerm_firewall.default</text>
</g>
<!-- [root] module.azurerm_firewall.azurerm_public_ip.default (expand) -->
<g id="node4" class="node">
<title>[root] module.azurerm_firewall.azurerm_public_ip.default (expand)</title>
<polygon fill="none" stroke="#000000" points="1182.0271,-324 872.0399,-324 872.0399,-288 1182.0271,-288 1182.0271,-324"/>
<text text-anchor="middle" x="1027.0335" y="-301.8" font-family="Times,serif" font-size="14.00" fill="#000000">module.azurerm_firewall.azurerm_public_ip.default</text>
</g>
<!-- [root] module.azurerm_firewall.azurerm_firewall.default (expand)&#45;&gt;[root] module.azurerm_firewall.azurerm_public_ip.default (expand) -->
<g id="edge6" class="edge">
<title>[root] module.azurerm_firewall.azurerm_firewall.default (expand)-&gt;[root] module.azurerm_firewall.azurerm_public_ip.default (expand)</title>
<path fill="none" stroke="#000000" d="M824.8174,-359.9243C862.6908,-349.8247 910.0402,-337.1982 949.3982,-326.7027"/>
<polygon fill="#000000" stroke="#000000" points="950.4612,-330.0417 959.2217,-324.0831 948.6575,-323.278 950.4612,-330.0417"/>
</g>
<!-- [root] module.azurerm_firewall.azurerm_subnet.default (expand) -->
<g id="node6" class="node">
<title>[root] module.azurerm_firewall.azurerm_subnet.default (expand)</title>
<polygon fill="none" stroke="#000000" points="854.6901,-324 561.3768,-324 561.3768,-288 854.6901,-288 854.6901,-324"/>
<text text-anchor="middle" x="708.0335" y="-301.8" font-family="Times,serif" font-size="14.00" fill="#000000">module.azurerm_firewall.azurerm_subnet.default</text>
</g>
<!-- [root] module.azurerm_firewall.azurerm_firewall.default (expand)&#45;&gt;[root] module.azurerm_firewall.azurerm_subnet.default (expand) -->
<g id="edge7" class="edge">
<title>[root] module.azurerm_firewall.azurerm_firewall.default (expand)-&gt;[root] module.azurerm_firewall.azurerm_subnet.default (expand)</title>
<path fill="none" stroke="#000000" d="M744.6687,-359.8314C739.0826,-351.6232 732.3705,-341.7606 726.2263,-332.7323"/>
<polygon fill="#000000" stroke="#000000" points="729.0845,-330.7112 720.5647,-324.4133 723.2975,-334.6496 729.0845,-330.7112"/>
</g>
<!-- [root] module.azurerm_firewall.azurerm_firewall_policy.default (expand) -->
<g id="node2" class="node">
<title>[root] module.azurerm_firewall.azurerm_firewall_policy.default (expand)</title>
<polygon fill="none" stroke="#000000" points="1393.1649,-252 1050.902,-252 1050.902,-216 1393.1649,-216 1393.1649,-252"/>
<text text-anchor="middle" x="1222.0335" y="-229.8" font-family="Times,serif" font-size="14.00" fill="#000000">module.azurerm_firewall.azurerm_firewall_policy.default</text>
</g>
<!-- [root] module.azurerm_firewall.azurerm_resource_group.default (expand) -->
<g id="node5" class="node">
<title>[root] module.azurerm_firewall.azurerm_resource_group.default (expand)</title>
<polygon fill="none" stroke="#000000" points="1353.7106,-180 1010.3563,-180 1010.3563,-144 1353.7106,-144 1353.7106,-180"/>
<text text-anchor="middle" x="1182.0335" y="-157.8" font-family="Times,serif" font-size="14.00" fill="#000000">module.azurerm_firewall.azurerm_resource_group.default</text>
</g>
<!-- [root] module.azurerm_firewall.azurerm_firewall_policy.default (expand)&#45;&gt;[root] module.azurerm_firewall.azurerm_resource_group.default (expand) -->
<g id="edge8" class="edge">
<title>[root] module.azurerm_firewall.azurerm_firewall_policy.default (expand)-&gt;[root] module.azurerm_firewall.azurerm_resource_group.default (expand)</title>
<path fill="none" stroke="#000000" d="M1211.9398,-215.8314C1207.4737,-207.7925 1202.126,-198.1666 1197.1956,-189.2918"/>
<polygon fill="#000000" stroke="#000000" points="1200.1791,-187.4551 1192.2631,-180.4133 1194.06,-190.8546 1200.1791,-187.4551"/>
</g>
<!-- [root] module.azurerm_firewall.azurerm_firewall_policy_rule_collection_group.default (expand) -->
<g id="node3" class="node">
<title>[root] module.azurerm_firewall.azurerm_firewall_policy_rule_collection_group.default (expand)</title>
<polygon fill="none" stroke="#000000" points="1397.2975,-396 924.7694,-396 924.7694,-360 1397.2975,-360 1397.2975,-396"/>
<text text-anchor="middle" x="1161.0335" y="-373.8" font-family="Times,serif" font-size="14.00" fill="#000000">module.azurerm_firewall.azurerm_firewall_policy_rule_collection_group.default</text>
</g>
<!-- [root] module.azurerm_firewall.azurerm_firewall_policy_rule_collection_group.default (expand)&#45;&gt;[root] module.azurerm_firewall.azurerm_firewall_policy.default (expand) -->
<g id="edge9" class="edge">
<title>[root] module.azurerm_firewall.azurerm_firewall_policy_rule_collection_group.default (expand)-&gt;[root] module.azurerm_firewall.azurerm_firewall_policy.default (expand)</title>
<path fill="none" stroke="#000000" d="M1172.128,-359.9151C1178.1773,-349.6161 1185.5307,-336.3418 1191.0335,-324 1200.0765,-303.7179 1208.1673,-279.9311 1213.814,-261.9069"/>
<polygon fill="#000000" stroke="#000000" points="1217.1779,-262.8753 1216.7674,-252.2884 1210.4862,-260.8205 1217.1779,-262.8753"/>
</g>
<!-- [root] module.azurerm_firewall.azurerm_public_ip.default (expand)&#45;&gt;[root] module.azurerm_firewall.azurerm_resource_group.default (expand) -->
<g id="edge10" class="edge">
<title>[root] module.azurerm_firewall.azurerm_public_ip.default (expand)-&gt;[root] module.azurerm_firewall.azurerm_resource_group.default (expand)</title>
<path fill="none" stroke="#000000" d="M1025.1121,-287.6479C1024.0618,-267.7907 1025.5195,-236.259 1042.0335,-216 1053.3521,-202.1146 1068.6916,-191.7926 1085.0751,-184.1214"/>
<polygon fill="#000000" stroke="#000000" points="1086.4898,-187.3229 1094.2656,-180.1266 1083.6993,-180.9031 1086.4898,-187.3229"/>
</g>
<!-- [root] module.azurerm_firewall.provider[&quot;registry.terraform.io/hashicorp/azurerm&quot;] -->
<g id="node8" class="node">
<title>[root] module.azurerm_firewall.provider["registry.terraform.io/hashicorp/azurerm"]</title>
<polygon fill="none" stroke="#000000" points="1184.0335,-108 743.9077,-90 1184.0335,-72 1624.1592,-90 1184.0335,-108"/>
<text text-anchor="middle" x="1184.0335" y="-85.8" font-family="Times,serif" font-size="14.00" fill="#000000">module.azurerm_firewall.provider["registry.terraform.io/hashicorp/azurerm"]</text>
</g>
<!-- [root] module.azurerm_firewall.azurerm_resource_group.default (expand)&#45;&gt;[root] module.azurerm_firewall.provider[&quot;registry.terraform.io/hashicorp/azurerm&quot;] -->
<g id="edge11" class="edge">
<title>[root] module.azurerm_firewall.azurerm_resource_group.default (expand)-&gt;[root] module.azurerm_firewall.provider["registry.terraform.io/hashicorp/azurerm"]</title>
<path fill="none" stroke="#000000" d="M1182.5382,-143.8314C1182.7521,-136.131 1183.0064,-126.9743 1183.2441,-118.4166"/>
<polygon fill="#000000" stroke="#000000" points="1186.7429,-118.5066 1183.522,-108.4133 1179.7456,-118.3122 1186.7429,-118.5066"/>
</g>
<!-- [root] module.azurerm_firewall.var.location (expand) -->
<g id="node13" class="node">
<title>[root] module.azurerm_firewall.var.location (expand)</title>
<ellipse fill="none" stroke="#000000" cx="1860.0335" cy="-90" rx="218.1033" ry="18"/>
<text text-anchor="middle" x="1860.0335" y="-85.8" font-family="Times,serif" font-size="14.00" fill="#000000">[root] module.azurerm_firewall.var.location (expand)</text>
</g>
<!-- [root] module.azurerm_firewall.azurerm_resource_group.default (expand)&#45;&gt;[root] module.azurerm_firewall.var.location (expand) -->
<g id="edge12" class="edge">
<title>[root] module.azurerm_firewall.azurerm_resource_group.default (expand)-&gt;[root] module.azurerm_firewall.var.location (expand)</title>
<path fill="none" stroke="#000000" d="M1351.8093,-143.9707C1463.9048,-132.0668 1609.2016,-116.637 1715.7126,-105.3261"/>
<polygon fill="#000000" stroke="#000000" points="1716.3222,-108.7811 1725.8966,-104.2446 1715.5829,-101.8203 1716.3222,-108.7811"/>
</g>
<!-- [root] module.azurerm_firewall.var.name (expand) -->
<g id="node14" class="node">
<title>[root] module.azurerm_firewall.var.name (expand)</title>
<ellipse fill="none" stroke="#000000" cx="518.0335" cy="-90" rx="208.2116" ry="18"/>
<text text-anchor="middle" x="518.0335" y="-85.8" font-family="Times,serif" font-size="14.00" fill="#000000">[root] module.azurerm_firewall.var.name (expand)</text>
</g>
<!-- [root] module.azurerm_firewall.azurerm_resource_group.default (expand)&#45;&gt;[root] module.azurerm_firewall.var.name (expand) -->
<g id="edge13" class="edge">
<title>[root] module.azurerm_firewall.azurerm_resource_group.default (expand)-&gt;[root] module.azurerm_firewall.var.name (expand)</title>
<path fill="none" stroke="#000000" d="M1015.7633,-143.9707C905.5173,-132.0163 762.4795,-116.5062 658.0503,-105.1826"/>
<polygon fill="#000000" stroke="#000000" points="658.3863,-101.6985 648.0672,-104.1 657.6316,-108.6578 658.3863,-101.6985"/>
</g>
<!-- [root] module.azurerm_firewall.azurerm_virtual_network.default (expand) -->
<g id="node7" class="node">
<title>[root] module.azurerm_firewall.azurerm_virtual_network.default (expand)</title>
<polygon fill="none" stroke="#000000" points="921.0597,-252 575.0073,-252 575.0073,-216 921.0597,-216 921.0597,-252"/>
<text text-anchor="middle" x="748.0335" y="-229.8" font-family="Times,serif" font-size="14.00" fill="#000000">module.azurerm_firewall.azurerm_virtual_network.default</text>
</g>
<!-- [root] module.azurerm_firewall.azurerm_subnet.default (expand)&#45;&gt;[root] module.azurerm_firewall.azurerm_virtual_network.default (expand) -->
<g id="edge14" class="edge">
<title>[root] module.azurerm_firewall.azurerm_subnet.default (expand)-&gt;[root] module.azurerm_firewall.azurerm_virtual_network.default (expand)</title>
<path fill="none" stroke="#000000" d="M718.1272,-287.8314C722.5932,-279.7925 727.9409,-270.1666 732.8714,-261.2918"/>
<polygon fill="#000000" stroke="#000000" points="736.007,-262.8546 737.8039,-252.4133 729.8878,-259.4551 736.007,-262.8546"/>
</g>
<!-- [root] module.azurerm_firewall.var.address_prefix (expand) -->
<g id="node15" class="node">
<title>[root] module.azurerm_firewall.var.address_prefix (expand)</title>
<ellipse fill="none" stroke="#000000" cx="244.0335" cy="-162" rx="244.067" ry="18"/>
<text text-anchor="middle" x="244.0335" y="-157.8" font-family="Times,serif" font-size="14.00" fill="#000000">[root] module.azurerm_firewall.var.address_prefix (expand)</text>
</g>
<!-- [root] module.azurerm_firewall.azurerm_subnet.default (expand)&#45;&gt;[root] module.azurerm_firewall.var.address_prefix (expand) -->
<g id="edge15" class="edge">
<title>[root] module.azurerm_firewall.azurerm_subnet.default (expand)-&gt;[root] module.azurerm_firewall.var.address_prefix (expand)</title>
<path fill="none" stroke="#000000" d="M649.7374,-287.9081C563.1977,-261.051 401.2082,-210.7784 310.2886,-182.562"/>
<polygon fill="#000000" stroke="#000000" points="311.2283,-179.189 300.6402,-179.5676 309.1535,-185.8744 311.2283,-179.189"/>
</g>
<!-- [root] module.azurerm_firewall.azurerm_virtual_network.default (expand)&#45;&gt;[root] module.azurerm_firewall.azurerm_resource_group.default (expand) -->
<g id="edge16" class="edge">
<title>[root] module.azurerm_firewall.azurerm_virtual_network.default (expand)-&gt;[root] module.azurerm_firewall.azurerm_resource_group.default (expand)</title>
<path fill="none" stroke="#000000" d="M856.71,-215.9707C919.5103,-205.5522 998.59,-192.433 1063.0568,-181.7381"/>
<polygon fill="#000000" stroke="#000000" points="1063.9807,-185.1327 1073.2731,-180.0432 1062.835,-178.2271 1063.9807,-185.1327"/>
</g>
<!-- [root] module.azurerm_firewall.var.address_space (expand) -->
<g id="node16" class="node">
<title>[root] module.azurerm_firewall.var.address_space (expand)</title>
<ellipse fill="none" stroke="#000000" cx="748.0335" cy="-162" rx="242.3416" ry="18"/>
<text text-anchor="middle" x="748.0335" y="-157.8" font-family="Times,serif" font-size="14.00" fill="#000000">[root] module.azurerm_firewall.var.address_space (expand)</text>
</g>
<!-- [root] module.azurerm_firewall.azurerm_virtual_network.default (expand)&#45;&gt;[root] module.azurerm_firewall.var.address_space (expand) -->
<g id="edge17" class="edge">
<title>[root] module.azurerm_firewall.azurerm_virtual_network.default (expand)-&gt;[root] module.azurerm_firewall.var.address_space (expand)</title>
<path fill="none" stroke="#000000" d="M748.0335,-215.8314C748.0335,-208.131 748.0335,-198.9743 748.0335,-190.4166"/>
<polygon fill="#000000" stroke="#000000" points="751.5336,-190.4132 748.0335,-180.4133 744.5336,-190.4133 751.5336,-190.4132"/>
</g>
<!-- [root] module.azurerm_firewall (expand) -->
<g id="node18" class="node">
<title>[root] module.azurerm_firewall (expand)</title>
<ellipse fill="none" stroke="#000000" cx="518.0335" cy="-18" rx="170.0666" ry="18"/>
<text text-anchor="middle" x="518.0335" y="-13.8" font-family="Times,serif" font-size="14.00" fill="#000000">[root] module.azurerm_firewall (expand)</text>
</g>
<!-- [root] module.azurerm_firewall.provider[&quot;registry.terraform.io/hashicorp/azurerm&quot;]&#45;&gt;[root] module.azurerm_firewall (expand) -->
<g id="edge21" class="edge">
<title>[root] module.azurerm_firewall.provider["registry.terraform.io/hashicorp/azurerm"]-&gt;[root] module.azurerm_firewall (expand)</title>
<path fill="none" stroke="#000000" d="M1063.0398,-76.9196C945.4028,-64.2021 767.3396,-44.952 647.0469,-31.9474"/>
<polygon fill="#000000" stroke="#000000" points="647.3596,-28.4609 637.0413,-30.8657 646.6071,-35.4203 647.3596,-28.4609"/>
</g>
<!-- [root] output.public_ip_address -->
<g id="node9" class="node">
<title>[root] output.public_ip_address</title>
<polygon fill="none" stroke="#000000" points="1725.6801,-468 1574.3868,-468 1574.3868,-432 1731.6801,-432 1731.6801,-462 1725.6801,-468"/>
<polyline fill="none" stroke="#000000" points="1725.6801,-468 1725.6801,-462 "/>
<polyline fill="none" stroke="#000000" points="1731.6801,-462 1725.6801,-462 "/>
<text text-anchor="middle" x="1653.0335" y="-445.8" font-family="Times,serif" font-size="14.00" fill="#000000">output.public_ip_address</text>
</g>
<!-- [root] module.azurerm_firewall.output.public_ip_address (expand) -->
<g id="node12" class="node">
<title>[root] module.azurerm_firewall.output.public_ip_address (expand)</title>
<ellipse fill="none" stroke="#000000" cx="1685.0335" cy="-378" rx="269.6159" ry="18"/>
<text text-anchor="middle" x="1685.0335" y="-373.8" font-family="Times,serif" font-size="14.00" fill="#000000">[root] module.azurerm_firewall.output.public_ip_address (expand)</text>
</g>
<!-- [root] output.public_ip_address&#45;&gt;[root] module.azurerm_firewall.output.public_ip_address (expand) -->
<g id="edge26" class="edge">
<title>[root] output.public_ip_address-&gt;[root] module.azurerm_firewall.output.public_ip_address (expand)</title>
<path fill="none" stroke="#000000" d="M1661.1084,-431.8314C1664.6437,-423.8771 1668.8695,-414.369 1672.7791,-405.5723"/>
<polygon fill="#000000" stroke="#000000" points="1675.9867,-406.9729 1676.8498,-396.4133 1669.59,-404.1299 1675.9867,-406.9729"/>
</g>
<!-- [root] meta.count&#45;boundary (EachMode fixup) -->
<g id="node10" class="node">
<title>[root] meta.count-boundary (EachMode fixup)</title>
<ellipse fill="none" stroke="#000000" cx="1363.0335" cy="-522" rx="191.4666" ry="18"/>
<text text-anchor="middle" x="1363.0335" y="-517.8" font-family="Times,serif" font-size="14.00" fill="#000000">[root] meta.count-boundary (EachMode fixup)</text>
</g>
<!-- [root] meta.count&#45;boundary (EachMode fixup)&#45;&gt;[root] output.public_ip_address -->
<g id="edge2" class="edge">
<title>[root] meta.count-boundary (EachMode fixup)-&gt;[root] output.public_ip_address</title>
<path fill="none" stroke="#000000" d="M1431.0256,-505.1192C1472.7375,-494.7631 1526.4267,-481.4334 1570.5583,-470.4766"/>
<polygon fill="#000000" stroke="#000000" points="1571.536,-473.8402 1580.398,-468.0336 1569.8492,-467.0464 1571.536,-473.8402"/>
</g>
<!-- [root] module.azurerm_firewall (close) -->
<g id="node11" class="node">
<title>[root] module.azurerm_firewall (close)</title>
<ellipse fill="none" stroke="#000000" cx="1363.0335" cy="-450" rx="161.9742" ry="18"/>
<text text-anchor="middle" x="1363.0335" y="-445.8" font-family="Times,serif" font-size="14.00" fill="#000000">[root] module.azurerm_firewall (close)</text>
</g>
<!-- [root] meta.count&#45;boundary (EachMode fixup)&#45;&gt;[root] module.azurerm_firewall (close) -->
<g id="edge1" class="edge">
<title>[root] meta.count-boundary (EachMode fixup)-&gt;[root] module.azurerm_firewall (close)</title>
<path fill="none" stroke="#000000" d="M1363.0335,-503.8314C1363.0335,-496.131 1363.0335,-486.9743 1363.0335,-478.4166"/>
<polygon fill="#000000" stroke="#000000" points="1366.5336,-478.4132 1363.0335,-468.4133 1359.5336,-478.4133 1366.5336,-478.4132"/>
</g>
<!-- [root] module.azurerm_firewall (close)&#45;&gt;[root] module.azurerm_firewall.azurerm_firewall.default (expand) -->
<g id="edge3" class="edge">
<title>[root] module.azurerm_firewall (close)-&gt;[root] module.azurerm_firewall.azurerm_firewall.default (expand)</title>
<path fill="none" stroke="#000000" d="M1252.2363,-436.836C1158.5177,-425.7011 1023.0182,-409.6021 917.4398,-397.0582"/>
<polygon fill="#000000" stroke="#000000" points="917.6614,-393.56 907.3183,-395.8556 916.8355,-400.5111 917.6614,-393.56"/>
</g>
<!-- [root] module.azurerm_firewall (close)&#45;&gt;[root] module.azurerm_firewall.azurerm_firewall_policy_rule_collection_group.default (expand) -->
<g id="edge4" class="edge">
<title>[root] module.azurerm_firewall (close)-&gt;[root] module.azurerm_firewall.azurerm_firewall_policy_rule_collection_group.default (expand)</title>
<path fill="none" stroke="#000000" d="M1314.6494,-432.7542C1286.6342,-422.7686 1251.1258,-410.1121 1221.3065,-399.4835"/>
<polygon fill="#000000" stroke="#000000" points="1222.4362,-396.1705 1211.8416,-396.1098 1220.086,-402.7642 1222.4362,-396.1705"/>
</g>
<!-- [root] module.azurerm_firewall (close)&#45;&gt;[root] module.azurerm_firewall.output.public_ip_address (expand) -->
<g id="edge5" class="edge">
<title>[root] module.azurerm_firewall (close)-&gt;[root] module.azurerm_firewall.output.public_ip_address (expand)</title>
<path fill="none" stroke="#000000" d="M1435.2966,-433.8418C1483.3615,-423.0943 1546.7713,-408.9158 1597.6678,-397.5352"/>
<polygon fill="#000000" stroke="#000000" points="1598.6768,-400.8961 1607.672,-395.2982 1597.1493,-394.0648 1598.6768,-400.8961"/>
</g>
<!-- [root] module.azurerm_firewall.output.public_ip_address (expand)&#45;&gt;[root] module.azurerm_firewall.azurerm_public_ip.default (expand) -->
<g id="edge18" class="edge">
<title>[root] module.azurerm_firewall.output.public_ip_address (expand)-&gt;[root] module.azurerm_firewall.azurerm_public_ip.default (expand)</title>
<path fill="none" stroke="#000000" d="M1544.2797,-362.5984C1441.0394,-351.3016 1300.5268,-335.9263 1192.0081,-324.0519"/>
<polygon fill="#000000" stroke="#000000" points="1192.2618,-320.5589 1181.9404,-322.9503 1191.5003,-327.5174 1192.2618,-320.5589"/>
</g>
<!-- [root] module.azurerm_firewall.var.location (expand)&#45;&gt;[root] module.azurerm_firewall (expand) -->
<g id="edge24" class="edge">
<title>[root] module.azurerm_firewall.var.location (expand)-&gt;[root] module.azurerm_firewall (expand)</title>
<path fill="none" stroke="#000000" d="M1706.5308,-77.1839C1681.9592,-75.318 1656.804,-73.5177 1633.0335,-72 1298.4276,-50.6362 906.8511,-33.4857 688.12,-24.6107"/>
<polygon fill="#000000" stroke="#000000" points="687.9692,-21.1018 677.8358,-24.1944 687.686,-28.0961 687.9692,-21.1018"/>
</g>
<!-- [root] module.azurerm_firewall.var.name (expand)&#45;&gt;[root] module.azurerm_firewall (expand) -->
<g id="edge25" class="edge">
<title>[root] module.azurerm_firewall.var.name (expand)-&gt;[root] module.azurerm_firewall (expand)</title>
<path fill="none" stroke="#000000" d="M518.0335,-71.8314C518.0335,-64.131 518.0335,-54.9743 518.0335,-46.4166"/>
<polygon fill="#000000" stroke="#000000" points="521.5336,-46.4132 518.0335,-36.4133 514.5336,-46.4133 521.5336,-46.4132"/>
</g>
<!-- [root] module.azurerm_firewall.var.address_prefix (expand)&#45;&gt;[root] module.azurerm_firewall (expand) -->
<g id="edge22" class="edge">
<title>[root] module.azurerm_firewall.var.address_prefix (expand)-&gt;[root] module.azurerm_firewall (expand)</title>
<path fill="none" stroke="#000000" d="M247.7473,-143.8707C252.9297,-123.2951 264.364,-90.2333 287.0335,-72 306.2891,-56.5125 358.2495,-43.6793 408.0228,-34.415"/>
<polygon fill="#000000" stroke="#000000" points="408.7266,-37.8445 417.938,-32.61 407.4728,-30.9577 408.7266,-37.8445"/>
</g>
<!-- [root] module.azurerm_firewall.var.address_space (expand)&#45;&gt;[root] module.azurerm_firewall (expand) -->
<g id="edge23" class="edge">
<title>[root] module.azurerm_firewall.var.address_space (expand)-&gt;[root] module.azurerm_firewall (expand)</title>
<path fill="none" stroke="#000000" d="M593.0734,-148.1545C467.9064,-136.2067 310.9261,-119.1596 301.0335,-108 265.5207,-67.9389 323.4757,-45.2984 388.3853,-32.7463"/>
<polygon fill="#000000" stroke="#000000" points="389.227,-36.1501 398.425,-30.8919 387.9556,-29.2665 389.227,-36.1501"/>
</g>
<!-- [root] module.azurerm_firewall.provider[&quot;registry.terraform.io/hashicorp/azurerm&quot;] (close) -->
<g id="node17" class="node">
<title>[root] module.azurerm_firewall.provider["registry.terraform.io/hashicorp/azurerm"] (close)</title>
<ellipse fill="none" stroke="#000000" cx="819.0335" cy="-450" rx="364.0115" ry="18"/>
<text text-anchor="middle" x="819.0335" y="-445.8" font-family="Times,serif" font-size="14.00" fill="#000000">[root] module.azurerm_firewall.provider["registry.terraform.io/hashicorp/azurerm"] (close)</text>
</g>
<!-- [root] module.azurerm_firewall.provider[&quot;registry.terraform.io/hashicorp/azurerm&quot;] (close)&#45;&gt;[root] module.azurerm_firewall.azurerm_firewall.default (expand) -->
<g id="edge19" class="edge">
<title>[root] module.azurerm_firewall.provider["registry.terraform.io/hashicorp/azurerm"] (close)-&gt;[root] module.azurerm_firewall.azurerm_firewall.default (expand)</title>
<path fill="none" stroke="#000000" d="M803.3883,-431.8314C796.1744,-423.454 787.4765,-413.3531 779.573,-404.1749"/>
<polygon fill="#000000" stroke="#000000" points="782.0668,-401.7071 772.8893,-396.4133 776.7624,-406.2748 782.0668,-401.7071"/>
</g>
<!-- [root] module.azurerm_firewall.provider[&quot;registry.terraform.io/hashicorp/azurerm&quot;] (close)&#45;&gt;[root] module.azurerm_firewall.azurerm_firewall_policy_rule_collection_group.default (expand) -->
<g id="edge20" class="edge">
<title>[root] module.azurerm_firewall.provider["registry.terraform.io/hashicorp/azurerm"] (close)-&gt;[root] module.azurerm_firewall.azurerm_firewall_policy_rule_collection_group.default (expand)</title>
<path fill="none" stroke="#000000" d="M902.6961,-432.3868C951.8249,-422.0439 1014.1012,-408.9331 1065.1985,-398.1758"/>
<polygon fill="#000000" stroke="#000000" points="1066.1973,-401.5423 1075.2617,-396.0572 1064.7552,-394.6925 1066.1973,-401.5423"/>
</g>
<!-- [root] root -->
<g id="node19" class="node">
<title>[root] root</title>
<ellipse fill="none" stroke="#000000" cx="1091.0335" cy="-594" rx="50.9823" ry="18"/>
<text text-anchor="middle" x="1091.0335" y="-589.8" font-family="Times,serif" font-size="14.00" fill="#000000">[root] root</text>
</g>
<!-- [root] root&#45;&gt;[root] meta.count&#45;boundary (EachMode fixup) -->
<g id="edge27" class="edge">
<title>[root] root-&gt;[root] meta.count-boundary (EachMode fixup)</title>
<path fill="none" stroke="#000000" d="M1132.0491,-583.1429C1173.511,-572.1677 1238.4982,-554.9652 1288.9924,-541.5991"/>
<polygon fill="#000000" stroke="#000000" points="1290.1154,-544.9225 1298.8868,-538.98 1288.3241,-538.1555 1290.1154,-544.9225"/>
</g>
<!-- [root] root&#45;&gt;[root] module.azurerm_firewall.provider[&quot;registry.terraform.io/hashicorp/azurerm&quot;] (close) -->
<g id="edge28" class="edge">
<title>[root] root-&gt;[root] module.azurerm_firewall.provider["registry.terraform.io/hashicorp/azurerm"] (close)</title>
<path fill="none" stroke="#000000" d="M1062.6945,-578.997C1015.0048,-553.7495 918.426,-502.6196 862.2396,-472.8738"/>
<polygon fill="#000000" stroke="#000000" points="863.7223,-469.6986 853.2468,-468.1129 860.4471,-475.8851 863.7223,-469.6986"/>
</g>
</g>
</svg>